<?xml version="1.0" encoding="utf-8"?>
<!-- Generator: Adobe Illustrator 27.8.1, SVG Export Plug-In . SVG Version: 6.00 Build 0)  -->
<svg version="1.1" id="Layer_1" xmlns="http://www.w3.org/2000/svg" xmlns:xlink="http://www.w3.org/1999/xlink" x="0px" y="0px"
	 viewBox="0 0 153.7 30.7" style="enable-background:new 0 0 153.7 30.7;" xml:space="preserve">
<style type="text/css">
	.st0{fill:#FFFFFF;}
	.st1{fill:#F9A426;}
</style>
<g id="She_Codes_copy">
	<path class="st0" d="M7.1,0c4.6,0,7,2.8,7,7.6v0.9H9.6V7.3c0-2.2-0.9-3-2.4-3s-2.4,0.8-2.4,3s1,3.8,4,6.5c3.9,3.5,5.2,6,5.2,9.4
		c0,4.8-2.4,7.6-7,7.6S0,28,0,23.2v-1.9h4.5v2.1c0,2.1,0.9,2.9,2.4,2.9s2.4-0.8,2.4-2.9s-0.9-3.8-4-6.5c-4-3.5-5.2-6-5.2-9.4
		C0.1,2.8,2.5,0,7.1,0z"/>
	<path class="st0" d="M21.5,30.4h-4.7V0.3h4.7v12.9h5.4V0.3h4.8v30.1h-4.8V17.5h-5.4V30.4z"/>
	<path class="st0" d="M39.8,13h6.5v4.3h-6.5v8.8H48v4.3H35.1V0.3H48v4.3h-8.2V13z"/>
	<path class="st1" d="M56.4,19.2l0.2,4.3c0.1,2.4,0.8,3,2.3,3h0.7v3.9h-2.4c-2.7,0-4.5-1.5-4.8-4.8L52,19.9c-0.1-2-0.6-2.6-2.4-2.6
		v-3.9c1.8,0,2.2-0.6,2.4-2.6l0.3-5.8c0.2-3.3,2.1-4.8,4.8-4.8h2.4v3.9h-0.7c-1.5,0-2.1,0.7-2.3,3.1l-0.2,4.3
		c-0.1,1.6-0.6,3.3-2.8,3.8C55.8,15.9,56.3,17.6,56.4,19.2z"/>
	<path class="st1" d="M75.7,19.2v4c0,4.8-2.4,7.6-7,7.6s-7-2.7-7-7.5V7.6c0-4.8,2.4-7.6,7-7.6s7,2.8,7,7.6v2.9h-4.5V7.3
		c0-2.2-0.9-3-2.4-3s-2.4,0.8-2.4,3v16.2c0,2.1,0.9,2.9,2.4,2.9s2.4-0.8,2.4-2.9v-4.3L75.7,19.2z"/>
	<path class="st1" d="M78.1,7.6c0-4.8,2.5-7.6,7.2-7.6s7.2,2.8,7.2,7.6v15.6c0,4.8-2.5,7.6-7.2,7.6s-7.2-2.7-7.2-7.6V7.6z
		 M82.9,23.5c0,2.1,1,3,2.4,3s2.4-0.8,2.4-3V7.3c0-2.2-1-3-2.4-3s-2.4,0.8-2.4,3V23.5z"/>
	<path class="st1" d="M95.5,0.3h7.5c4.7,0,7,2.6,7,7.4V23c0,4.8-2.3,7.4-7,7.4h-7.5V0.3z M100.2,4.6v21.5h2.7c1.5,0,2.4-0.8,2.4-2.9
		V7.6c0-2.2-0.9-2.9-2.4-2.9L100.2,4.6z"/>
	<path class="st1" d="M117.8,13h6.5v4.3h-6.5v8.8h8.2v4.3H113V0.3h12.9v4.3h-8.2L117.8,13z"/>
	<path class="st1" d="M135.2,0c4.6,0,7,2.8,7,7.6v0.9h-4.5V7.3c0-2.2-0.9-3-2.4-3s-2.4,0.8-2.4,3s0.9,3.8,4,6.5
		c3.9,3.5,5.2,6,5.2,9.4c0,4.8-2.4,7.6-7,7.6s-7-2.7-7-7.5v-1.9h4.5v2.1c0,2.1,0.9,2.9,2.4,2.9s2.4-0.8,2.4-2.9s-0.9-3.8-4-6.5
		c-3.9-3.5-5.2-6-5.2-9.4C128.2,2.8,130.6,0,135.2,0z"/>
	<path class="st1" d="M147,11.6l-0.2-4.3c-0.1-2.4-0.8-3-2.3-3h-0.7V0.3h2.4c2.7,0,4.6,1.5,4.8,4.8l0.3,5.8c0.1,2,0.6,2.6,2.4,2.6
		v3.9c-1.8,0-2.2,0.6-2.4,2.6l-0.3,5.8c-0.2,3.3-2.1,4.8-4.8,4.8h-2.4v-3.9h0.7c1.5,0,2.1-0.7,2.3-3l0.2-4.3
		c0.1-1.6,0.6-3.3,2.8-3.8C147.6,14.8,147.1,13.1,147,11.6z"/>
</g>
</svg>
